<svg width="24" height="24" viewBox="0 0 24 24" fill="none" xmlns="http://www.w3.org/2000/svg">
<path d="M12.0004 13.0007C12.5528 13.0007 13.0007 12.5528 13.0007 12.0004C13.0007 11.4479 12.5528 11 12.0004 11C11.4479 11 11 11.4479 11 12.0004C11 12.5528 11.4479 13.0007 12.0004 13.0007Z" stroke="#4E5968" stroke-width="1.92" stroke-linecap="round" stroke-linejoin="round"/>
<path d="M12.0004 6.0007C12.5528 6.0007 13.0007 5.55283 13.0007 5.00035C13.0007 4.44787 12.5528 4 12.0004 4C11.4479 4 11 4.44787 11 5.00035C11 5.55283 11.4479 6.0007 12.0004 6.0007Z" stroke="#4E5968" stroke-width="1.92" stroke-linecap="round" stroke-linejoin="round"/>
<path d="M12.0004 20.0007C12.5528 20.0007 13.0007 19.5528 13.0007 19.0004C13.0007 18.4479 12.5528 18 12.0004 18C11.4479 18 11 18.4479 11 19.0004C11 19.5528 11.4479 20.0007 12.0004 20.0007Z" stroke="#4E5968" stroke-width="1.92" stroke-linecap="round" stroke-linejoin="round"/>
</svg>
